<svg width="510" height="387" xmlns="http://www.w3.org/2000/svg" xmlns:xlink="http://www.w3.org/1999/xlink" xml:space="preserve" overflow="hidden"><defs><clipPath id="clip0"><rect x="364" y="89" width="510" height="387"/></clipPath></defs><g clip-path="url(#clip0)" transform="translate(-364 -89)"><path d="M418.705 168.124 414.177 168.124 414.177 149.143C414.105 125.4 394.817 106.203 371.074 106.257L309.642 106.637 301.908 82.9302C296.221 65.254 279.759 53.2649 261.177 53.2649L145.541 53.2649 145.071 53.2649 78.0801 53.2649C58.4117 53.301 39.5583 61.1249 25.6473 75.034 11.7383 88.925 3.91439 107.796 3.89631 127.448L3.89631 398.731C3.96875 399.166 4.04119 399.618 4.16797 400.053 4.24041 400.832 4.38529 401.593 4.62074 402.353 4.85617 403.023 5.14595 403.675 5.52627 404.291 5.87038 404.961 6.28691 405.577 6.77591 406.157 7.24678 406.718 7.7539 407.225 8.31532 407.696 8.89486 408.167 9.51062 408.583 10.1626 408.927 10.8689 409.254 11.6115 409.507 12.3721 409.706 12.8249 409.833 13.1871 410.104 13.6761 410.195L13.658 410.195C14.2557 410.286 14.8533 410.34 15.451 410.34L15.7951 410.34 364.862 410.503C382.538 410.594 399.653 404.328 413.09 392.881 426.528 381.417 435.42 365.516 438.137 348.057L459.164 217.984C461.156 205.886 457.878 193.498 450.126 183.972 442.393 174.445 430.947 168.704 418.686 168.179ZM279.888 90.0845 285.321 106.783 186.692 107.362 186.475 107.362 186.475 107.344C178.289 107.308 170.99 102.183 168.165 94.4858L161.626 76.4476 261.183 76.4476C269.713 76.4476 277.284 81.9533 279.91 90.0669ZM78.081 76.3748 136.814 76.3748 146.341 102.4 146.323 102.4C152.498 119.279 168.527 130.544 186.511 130.598L186.782 130.598 301.37 130.055C301.66 130.055 301.932 129.874 302.221 129.838L371.187 129.439C382.09 129.421 390.964 138.241 391 149.144L391 168.106 250.857 168.106 250.476 168.106 104.755 168.106C87.1516 168.051 70.1092 174.299 56.6902 185.691 43.2886 197.083 34.3599 212.894 31.5706 230.28L27.0791 257.501 27.061 127.395C27.061 113.866 32.4401 100.881 42.0026 91.3187 51.5652 81.7567 64.5507 76.3771 78.0791 76.3771ZM436.314 214.181 415.269 344.343C411.412 369.137 390.005 387.392 364.905 387.265L29.1484 387.102 54.449 234.102C58.4516 209.435 79.7677 191.342 104.763 191.415L418.315 191.415C423.839 191.778 428.965 194.476 432.388 198.823 435.829 203.169 437.26 208.765 436.318 214.235Z" fill="#FFFFFF" transform="matrix(1 0 0 1.00076 387.182 49.0078)"/><text fill="#FFFFFF" font-family="Helvetica,Helvetica_MSFontService,sans-serif" font-weight="700" font-size="5" transform="matrix(4.63636 0 0 4.6399 387.182 594)">Created by Atif Arshad</text><text fill="#FFFFFF" font-family="Helvetica,Helvetica_MSFontService,sans-serif" font-weight="700" font-size="5" transform="matrix(4.63636 0 0 4.6399 387.182 617)">from Noun Project</text></g></svg>